<?xml version="1.0" encoding="utf-8"?><svg xml:space="preserve" viewBox="0 0 100 100" y="0px" x="0px" xmlns:xlink="http://www.w3.org/1999/xlink" xmlns="http://www.w3.org/2000/svg" id="圖層_1" version="1.1" width="200px" height="200px" style="width:100%;height:100%;background-size:initial;background-repeat-y:initial;background-repeat-x:initial;background-position-y:initial;background-position-x:initial;background-origin:initial;background-image:initial;background-color:rgb(255, 255, 255);background-clip:initial;background-attachment:initial;animation-play-state:paused" ><g class="ldl-scale" style="transform-origin:50% 50%;transform:rotate(0deg) scale(0.8, 0.8);animation-play-state:paused" ><g style="animation-play-state:paused" ><path d="M94.16,58.89l-27.23,8.19c-3.11,0.94-7-2.88-8.7-8.52l-6.1-20.27c-1.41-4.68-0.88-9.29,1.28-11.19 l7.96-6.97c3.08-2.7,7.45-4.01,11.51-3.46l10.49,1.42c2.85,0.39,5.83,3.94,7.24,8.62l6.1,20.27 C98.41,52.62,97.27,57.95,94.16,58.89z" fill="#A0C8D7" style="fill:rgb(160, 200, 215);animation-play-state:paused" ></path>
<path d="M5.84,58.89l27.23,8.19c3.11,0.94,7-2.88,8.7-8.52l6.1-20.27c1.41-4.68,0.88-9.29-1.28-11.19l-7.96-6.97 c-3.08-2.7-7.45-4.01-11.51-3.46l-10.49,1.42c-2.85,0.39-5.83,3.94-7.24,8.62l-6.1,20.27C1.59,52.62,2.73,57.95,5.84,58.89z" fill="#A0C8D7" style="fill:rgb(160, 200, 215);animation-play-state:paused" ></path></g>
<path d="M60.57,85.65H39.44c-9.95,0-18.02-8.07-18.02-18.02V29.37c0-3.58,2.63-6.62,6.18-7.14l18.29-2.64 c2.73-0.39,5.5-0.39,8.23,0l18.29,2.64c3.55,0.51,6.18,3.55,6.18,7.14v38.26C78.59,77.58,70.52,85.65,60.57,85.65z" fill="#77A4BD" style="fill:rgb(119, 164, 189);animation-play-state:paused" ></path>
<g style="animation-play-state:paused" ><circle r="5.66" cy="40.37" cx="64.73" style="animation-play-state:paused" ></circle>
<circle r="5.66" cy="40.37" cx="35.28" style="animation-play-state:paused" ></circle></g>
<g style="animation-play-state:paused" ><path d="M65.43,68.68c1.01,1.82,3.36,2.43,5.1,1.29c1.03-0.68,2.13-1.48,3.25-2.42c6.44-5.41,10.85-13.1,9.75-14.24 c-0.66-0.68-2.96,1.31-13.07,7.27c-1.52,0.9-2.92,1.71-4.14,2.41c-1.71,0.98-2.31,3.15-1.36,4.87L65.43,68.68z" fill="#FFFFFF" style="fill:rgb(255, 255, 255);animation-play-state:paused" ></path>
<path d="M34.58,68.68c-1.01,1.82-3.36,2.43-5.1,1.29c-1.03-0.68-2.13-1.48-3.25-2.42 c-6.44-5.41-10.85-13.1-9.75-14.24c0.66-0.68,2.96,1.31,13.07,7.27c1.52,0.9,2.92,1.71,4.14,2.41c1.71,0.98,2.31,3.15,1.36,4.87 L34.58,68.68z" fill="#FFFFFF" style="fill:rgb(255, 255, 255);animation-play-state:paused" ></path></g>
<g style="animation-play-state:paused" ><path d="M50,91.45L50,91.45c-3.69,0-6.72-2.93-6.84-6.61l-0.91-27.27c-0.15-4.38,3.36-8.01,7.74-8.01h0 c4.38,0,7.89,3.63,7.74,8.01l-0.91,27.27C56.72,88.52,53.69,91.45,50,91.45z" fill="#D2E7F0" style="fill:rgb(210, 231, 240);animation-play-state:paused" ></path>
<line y2="58.4" x2="53.61" y1="58.4" x1="46.64" stroke-miterlimit="10" stroke-linejoin="round" stroke-linecap="round" stroke-width="3.5" stroke="#77A4BD" fill="none" style="stroke:rgb(119, 164, 189);animation-play-state:paused" ></line>
<line y2="66.63" x2="53.27" y1="66.63" x1="46.99" stroke-miterlimit="10" stroke-linejoin="round" stroke-linecap="round" stroke-width="3.5" stroke="#77A4BD" fill="none" style="stroke:rgb(119, 164, 189);animation-play-state:paused" ></line>
<line y2="74.87" x2="53.01" y1="74.87" x1="47.24" stroke-miterlimit="10" stroke-linejoin="round" stroke-linecap="round" stroke-width="3.5" stroke="#77A4BD" fill="none" style="stroke:rgb(119, 164, 189);animation-play-state:paused" ></line>
<line y2="83.11" x2="52.7" y1="83.11" x1="47.55" stroke-miterlimit="10" stroke-linejoin="round" stroke-linecap="round" stroke-width="3.5" stroke="#77A4BD" fill="none" style="stroke:rgb(119, 164, 189);animation-play-state:paused" ></line></g>
<metadata xmlns:d="https://loading.io/stock/" style="animation-play-state:paused" ><d:name style="animation-play-state:paused" >animal</d:name>


<d:tags style="animation-play-state:paused" >animal,elephant,zoo,cute,wild,tusk</d:tags>


<d:license style="animation-play-state:paused" >by</d:license>


<d:slug style="animation-play-state:paused" >9cxqzk</d:slug></metadata></g><!-- generated by https://loading.io/ --></svg>