<?xml version="1.0" encoding="UTF-8" standalone="no"?>
<!-- Generator: Adobe Illustrator 22.0.1, SVG Export Plug-In . SVG Version: 6.00 Build 0)  -->

<svg
   version="1.1"
   x="0px"
   y="0px"
   viewBox="0 0 643.70042 363.58034"
   xml:space="preserve"
   id="svg179"
   sodipodi:docname="logo.svg"
   width="643.70044"
   height="363.58035"
   inkscape:version="1.1.2 (b8e25be8, 2022-02-05)"
   xmlns:inkscape="http://www.inkscape.org/namespaces/inkscape"
   xmlns:sodipodi="http://sodipodi.sourceforge.net/DTD/sodipodi-0.dtd"
   xmlns="http://www.w3.org/2000/svg"
   xmlns:svg="http://www.w3.org/2000/svg"><defs
   id="defs183" /><sodipodi:namedview
   id="namedview181"
   pagecolor="#ffffff"
   bordercolor="#666666"
   borderopacity="1.0"
   inkscape:pageshadow="2"
   inkscape:pageopacity="0.0"
   inkscape:pagecheckerboard="0"
   showgrid="false"
   fit-margin-top="0"
   fit-margin-left="0"
   fit-margin-right="0"
   fit-margin-bottom="0"
   inkscape:zoom="1.0384855"
   inkscape:cx="20.703227"
   inkscape:cy="118.92319"
   inkscape:window-width="1920"
   inkscape:window-height="1075"
   inkscape:window-x="0"
   inkscape:window-y="25"
   inkscape:window-maximized="1"
   inkscape:current-layer="svg179" />
<g
   id="Layer_1"
   transform="translate(-49.419328,-239.01841)">
	<g
   id="g175">
		<path
   style="fill:#82a734"
   d="m 189.7,483.747 c -2.515,0 -49.458,69.576 -44.428,80.474 5.03,10.898 87.18,24.31 93.048,7.544 5.868,-16.766 -14.251,-78.797 -14.251,-78.797 z"
   id="path113" />
		<path
   style="fill:#82a734"
   d="m 383.34,503.866 c 0,0 -23.471,70.415 -17.604,77.121 5.868,6.706 79.635,5.868 84.665,-9.221 5.03,-15.089 -30.178,-73.768 -30.178,-73.768 0,0 -31.015,7.544 -36.883,5.868 z"
   id="path115" />
		<path
   style="fill:#658000"
   d="m 78.975,463.154 c 0,0 48.101,-15.252 57.487,-39.889 9.386,-24.637 50.448,-180.673 159.555,-184.192 109.107,-3.52 127.879,164.248 147.823,193.578 19.944,29.33 45.755,32.85 45.755,32.85 0,0 -34.023,35.196 -114.973,52.794 -80.952,17.597 -229.948,-10e-4 -295.647,-55.141 z"
   id="path117" />
		<path
   style="fill:#97bf04"
   d="m 404.774,511.269 c 23.252,-7.6 63.975,-40.414 70.742,-71.579 0,0 -51.621,-66.872 -35.196,-114.974 16.425,-48.101 84.47,-98.549 157.209,-62.18 72.739,36.369 127.879,122.013 73.911,180.673 -53.967,58.66 -124.359,29.33 -124.359,29.33 0,0 -30.503,35.196 -86.817,43.408 -23.507,3.429 -55.49,-4.678 -55.49,-4.678 z"
   id="path119" />
		<path
   style="fill:#97bf04"
   d="m 116.771,487.1 c -3.353,0 -45.266,-26.825 -66.223,-49.458 0,0 -6.706,39.399 12.574,51.973 19.28,12.574 53.649,-2.515 53.649,-2.515 z"
   id="path121" />
		<path
   style="fill:#97bf04"
   d="m 152.027,500.949 c -2.515,0 -49.506,69.978 -44.477,80.875 5.03,10.898 87.18,24.31 93.048,7.544 5.868,-16.765 -14.067,-78.452 -14.067,-78.452 z"
   id="path123" />
		<path
   style="fill:#97bf04"
   d="m 345.263,522.647 c 0,0 -23.117,69.237 -17.249,75.943 5.868,6.706 79.635,5.868 84.665,-9.221 5.03,-15.089 -29.736,-73.107 -29.736,-73.107 0,0 -17.805,3.867 -37.68,6.385 z"
   id="path125" />
		<circle
   style="fill:#214001"
   cx="559.06598"
   cy="337.38501"
   r="31.579"
   id="circle127" />
		<circle
   style="fill:#ffffff"
   cx="563.11499"
   cy="325.64401"
   r="12.551"
   id="circle129" />
		<path
   style="fill:#214001"
   d="m 547.081,472.539 c -4.229,-1.21 -30.475,-14.904 -32.187,-28.597 l -10.841,0.571 21.682,-14.264 c 0,0 -1.712,12.552 1.712,21.111 3.424,8.559 19.634,21.179 19.634,21.179 z"
   id="path131" />
		<path
   style="fill:#d3ff2b"
   d="m 117.171,459.578 c 3.319,-0.948 22.093,-17.26 29.688,-21.403 7.595,-4.143 59.376,13.808 60.757,22.784 1.381,8.975 -6.904,32.45 -14.499,35.902 -7.595,3.452 -90.445,-33.141 -75.946,-37.283 z"
   id="path133" />
		<path
   style="fill:#d3ff2b"
   d="m 212.449,495.48 c 0,0 6.214,-26.926 11.047,-29.688 4.833,-2.762 72.494,3.452 78.708,5.523 6.214,2.071 12.428,35.211 10.356,38.663 -2.072,3.452 -100.111,-4.833 -100.111,-14.498 z"
   id="path135" />
		<path
   style="fill:#d3ff2b"
   d="m 325.711,510.897 c 0,0 -5.46,-34.906 1.444,-40.429 6.904,-5.523 64.258,-11.58 70.472,-11.58 6.214,0 19.319,35.992 15.199,37.57 -32.45,12.427 -81.592,15.82 -87.115,14.439 z"
   id="path137" />
		<path
   style="fill:#d3ff2b"
   d="m 415.232,458.435 c 0,0 20.696,-14.92 25.509,-12.995 4.813,1.925 22.14,12.032 18.771,18.289 -3.369,6.257 -27.434,24.065 -31.284,22.14 -3.852,-1.925 -16.365,-23.102 -12.996,-27.434 z"
   id="path139" />
		<path
   style="fill:#d3ff2b"
   d="m 406.568,442.552 c 0,0 -13.958,-50.536 -5.294,-57.274 8.663,-6.738 32.728,36.579 34.172,45.723 1.444,9.144 -27.915,18.29 -28.878,11.551 z"
   id="path141" />
		<path
   style="fill:#d3ff2b"
   d="m 392.611,441.59 c 1.203,-2.139 -6.738,-45.723 -13.476,-50.536 -6.738,-4.813 -51.98,2.406 -55.83,8.182 -3.85,5.776 -7.219,45.242 0,51.98 7.219,6.738 64.974,-1.925 69.306,-9.626 z"
   id="path143" />
		<path
   style="fill:#d3ff2b"
   d="m 300.202,452.66 c 2.373,-1.499 4.813,-7.701 4.813,-16.364 0,-8.663 -4.813,-37.06 -6.257,-38.504 -1.444,-1.444 -64.013,-3.85 -68.826,-1.444 -4.813,2.406 -12.032,41.873 -8.663,48.13 3.369,6.257 69.788,13.957 78.933,8.182 z"
   id="path145" />
		<path
   style="fill:#d3ff2b"
   d="m 202.017,442.071 c 1.444,0 6.738,-1.925 7.701,-9.626 0.963,-7.701 6.257,-32.247 4.332,-35.135 -1.925,-2.888 -52.943,-16.845 -56.312,-12.032 -3.369,4.813 -10.107,32.728 -9.145,38.022 0.963,5.295 50.055,18.771 53.424,18.771 z"
   id="path147" />
		<path
   style="fill:#d3ff2b"
   d="m 167.845,374.208 c 0,0 45.242,13.958 48.611,7.701 3.369,-6.257 0.481,-35.135 -1.444,-38.022 -1.925,-2.888 -25.509,-8.663 -31.766,-3.369 -6.256,5.294 -20.695,26.952 -15.401,33.69 z"
   id="path149" />
		<path
   style="fill:#d3ff2b"
   d="m 235.227,382.872 c 0,0 56.793,6.257 64.013,1.925 7.219,-4.332 0.963,-34.653 -4.813,-40.429 -5.776,-5.776 -50.536,-3.369 -54.868,0 -4.332,3.369 -12.996,32.247 -4.332,38.504 z"
   id="path151" />
		<path
   style="fill:#d3ff2b"
   d="m 319.935,384.797 c 0,0 52.943,-4.813 55.83,-9.145 2.887,-4.332 -11.07,-30.803 -12.995,-34.653 -1.925,-3.85 -40.429,5.294 -44.761,7.701 -4.331,2.406 -3.368,32.728 1.926,36.097 z"
   id="path153" />
		<path
   style="fill:#d3ff2b"
   d="m 387.317,371.321 c 1.486,-0.33 18.289,-0.481 20.696,-6.257 2.406,-5.776 -10.589,-31.284 -14.439,-33.21 -3.85,-1.925 -18.771,1.444 -15.883,9.626 2.887,8.182 5.294,30.803 9.626,29.841 z"
   id="path155" />
		<path
   style="fill:#d3ff2b"
   d="m 323.785,331.373 c 1.079,7.283 37.06,-2.888 37.06,-9.626 0,-6.738 -20.696,-42.354 -28.878,-47.167 -8.182,-4.813 -15.882,4.813 -8.182,56.793 z"
   id="path157" />
		<path
   style="fill:#d3ff2b"
   d="m 298.758,327.522 c 1.375,-2.921 2.406,-40.91 0,-48.611 -2.406,-7.701 -27.434,-7.701 -36.097,3.85 -8.663,11.551 -27.434,41.392 -20.696,47.648 6.738,6.256 52.942,5.296 56.793,-2.887 z"
   id="path159" />
		<path
   style="fill:#d3ff2b"
   d="m 223.194,326.56 c 1.454,-1.35 13.476,-31.766 18.771,-42.354 5.294,-10.589 -7.701,-17.808 -27.915,2.888 -20.214,20.696 -26.471,31.284 -21.658,35.616 4.813,4.332 24.064,10.107 30.802,3.85 z"
   id="path161" />
		<path
   style="fill:#d3ff2b"
   d="m 355.551,279.874 c 0,0 15.883,37.541 21.658,37.541 5.776,0 9.626,-4.332 7.701,-10.589 -1.925,-6.256 -31.284,-38.503 -29.359,-26.952 z"
   id="path163" />
		<path
   style="fill:#d3ff2b"
   d="m 249.184,260.141 c 0,0 12.514,-12.032 43.317,-14.439 30.803,-2.406 52.461,13.958 53.424,17.808 0.963,3.85 -28.397,0.963 -43.317,2.406 -14.92,1.444 -71.232,1.444 -53.424,-5.775 z"
   id="path165" />
		<path
   style="fill:#d3ff2b"
   d="m 360.321,597.833 c 0,0 2.474,-18.803 10.638,-19.792 8.164,-0.99 13.607,17.318 12.865,18.06 -0.742,0.742 -23.75,5.443 -23.503,1.732 z"
   id="path167" />
		<path
   style="fill:#d3ff2b"
   d="m 389.515,592.885 c 0,0 -0.742,-19.545 5.195,-21.277 5.937,-1.732 15.586,11.38 14.349,17.071 -1.236,5.691 -18.555,7.175 -19.544,4.206 z"
   id="path169" />
		<path
   style="fill:#d3ff2b"
   d="m 175.017,589.174 c -0.087,-0.737 0.99,-21.771 10.638,-24.74 9.649,-2.969 13.855,18.06 11.381,23.008 -2.474,4.948 -21.524,5.938 -22.019,1.732 z"
   id="path171" />
		<path
   style="fill:#d3ff2b"
   d="m 143.844,584.473 c 0.959,-1.622 5.443,-16.329 14.102,-17.813 8.659,-1.484 13.855,16.081 11.628,20.04 -2.227,3.959 -28.946,3.216 -25.73,-2.227 z"
   id="path173" />
	</g>
</g>
<g
   id="Isolation_Mode"
   transform="translate(-49.419328,-239.01841)">
</g>
</svg>
