<?xml version="1.0" encoding="utf-8"?><svg xml:space="preserve" viewBox="0 0 100 100" y="0" x="0" xmlns="http://www.w3.org/2000/svg" id="圖層_1" version="1.1" width="200px" height="200px" xmlns:xlink="http://www.w3.org/1999/xlink" style="width:100%;height:100%;background-size:initial;background-repeat-y:initial;background-repeat-x:initial;background-position-y:initial;background-position-x:initial;background-origin:initial;background-image:initial;background-color:rgb(255, 255, 255);background-clip:initial;background-attachment:initial;animation-play-state:paused" ><g class="ldl-scale" style="transform-origin:50% 50%;transform:rotate(0deg) scale(0.8, 0.8);animation-play-state:paused" ><ellipse fill="#f47e60" ry="7.8" rx="27.8" cy="79.7" cx="50" style="fill:rgb(244, 126, 96);animation-play-state:paused" ></ellipse>
<path fill="#f8b26a" d="M74.1 62H25.9c-3 0-5.4 2.4-5.4 5.4v7.3c0 2.5 1.8 4.7 4.1 5.2 4.3 2.7 14 4.7 25.4 4.7s21-1.9 25.4-4.7c2.4-.6 4.1-2.7 4.1-5.2v-7.3c0-3-2.4-5.4-5.4-5.4z" style="fill:rgb(248, 178, 106);animation-play-state:paused" ></path>
<ellipse fill="#f47e60" ry="7.8" rx="27.8" cy="64.7" cx="50" style="fill:rgb(244, 126, 96);animation-play-state:paused" ></ellipse>
<circle fill="#a0c8d7" r="27.8" cy="40" cx="50" style="fill:rgb(160, 200, 215);animation-play-state:paused" ></circle>
<path stroke-miterlimit="10" stroke-linecap="round" stroke-width="4" stroke="#fff" fill="#a0c8d7" d="M34.2 24c2.6-2.6 5.8-4.4 9.2-5.5" style="stroke:rgb(255, 255, 255);fill:rgb(160, 200, 215);animation-play-state:paused" ></path>
<path stroke-miterlimit="10" stroke-linecap="round" stroke-width="4" stroke="#fff" fill="#a0c8d7" d="M28.5 33.4c.1-.4.2-.7.4-1.1l.9-2.1" style="stroke:rgb(255, 255, 255);fill:rgb(160, 200, 215);animation-play-state:paused" ></path>
<path fill="#77a4bd" d="M49.8 65h-.4.4z" style="fill:rgb(119, 164, 189);animation-play-state:paused" ></path>
<path fill="#77a4bd" d="M50.2 65h-.4.4z" style="fill:rgb(119, 164, 189);animation-play-state:paused" ></path>
<path fill="#77a4bd" d="M71.6 28c-1.5-2.6-3.3-4.9-5.5-6.8-.4.1-.7.6-.4 1 .9 1.3 1.6 2.7 2.2 4.2 3.8 9.5.6 20.5-7.6 26.5-.7.5-1.4 1-2.2 1.4-.7.4-1.5.8-2.3 1.2-9.3 4.2-20.5 1.4-26.8-6.6-1-1.3-1.9-2.6-2.5-4-.2-.5-.8-.5-1.1-.2.5 2.8 1.6 5.6 3.1 8.2C35.4 64.4 50.4 68.3 62 62c.1-.1.2-.1.3-.2.1-.1.2-.1.3-.2 11.4-6.9 15.5-21.9 9-33.6z" style="fill:rgb(119, 164, 189);animation-play-state:paused" ></path>
<metadata xmlns:d="https://loading.io/stock/" style="animation-play-state:paused" ><d:name style="animation-play-state:paused" >fortune tell,crystal ball,magic,divination,witch</d:name>
<d:tags style="animation-play-state:paused" >rf,fortune tell,crystal ball,magic,divination,witch</d:tags>
<d:license style="animation-play-state:paused" >by</d:license>
<d:slug style="animation-play-state:paused" >fu9c62</d:slug></metadata></g><!-- generated by https://loading.io/ --></svg>